<svg xmlns="http://www.w3.org/2000/svg" version="1.1" xmlns:xlink="http://www.w3.org/1999/xlink" xmlns:svgjs="http://svgjs.dev/svgjs" width="1000" height="363" viewBox="0 0 1000 363"><g transform="matrix(1,0,0,1,-0.6060606060606233,0.5752229717777197)"><svg viewBox="0 0 396 144" data-background-color="#ffffff" preserveAspectRatio="xMidYMid meet" height="363" width="1000" xmlns="http://www.w3.org/2000/svg" xmlns:xlink="http://www.w3.org/1999/xlink"><g id="tight-bounds" transform="matrix(1,0,0,1,0.2400000000000091,-0.22818762516801883)"><svg viewBox="0 0 395.52 144.45637525033604" height="144.45637525033604" width="395.52"><g><svg viewBox="0 0 669.250431762963 244.43135999999998" height="144.45637525033604" width="395.52"><g transform="matrix(1,0,0,1,273.73043176296295,30.030184905608223)"><svg viewBox="0 0 395.52 184.37099018878354" height="184.37099018878354" width="395.52"><g id="textblocktransform"><svg viewBox="0 0 395.52 184.37099018878354" height="184.37099018878354" width="395.52" id="textblock"><g><svg viewBox="0 0 395.52 124.10864197530864" height="124.10864197530864" width="395.52"><g transform="matrix(1,0,0,1,0,0)"><svg width="395.52" viewBox="1.05 -35.35 198.89 61" height="124.10864197530864" data-palette-color="url(#e4a0d35f-2182-44a9-b722-af3d75ab7a11)"></svg></g></svg></g><g transform="matrix(1,0,0,1,0,153.4077137382716)"><svg viewBox="0 0 395.52 30.963276450511945" height="30.963276450511945" width="395.52"><g transform="matrix(1,0,0,1,0,0)"><svg width="395.52" viewBox="1.55 -36.2 468.75 36.7" height="30.963276450511945" data-palette-color="#4b4b4b"><path d="M11.65-14.25L11.65-14.25 11.1-12.55 21.9-12.55 21.35-14.25Q19.45-20.15 18.25-24.03 17.05-27.9 16.8-28.85L16.8-28.85 16.55-29.8Q16-27.45 11.65-14.25ZM9.7-8.25L7 0 1.55 0 13.2-33.7 19.95-33.7 31.45 0 25.95 0 23.3-8.25 9.7-8.25ZM42.15-33.7L42.15 0 37.05 0 37.05-33.7 42.15-33.7ZM70.14-14.25L70.14-14.25 69.59-12.55 80.39-12.55 79.84-14.25Q77.94-20.15 76.74-24.03 75.54-27.9 75.29-28.85L75.29-28.85 75.04-29.8Q74.49-27.45 70.14-14.25ZM68.19-8.25L65.49 0 60.04 0 71.69-33.7 78.44-33.7 89.94 0 84.44 0 81.79-8.25 68.19-8.25ZM99.84-13.5L99.84 0 94.94 0 94.94-25.35 99.84-25.35 99.84-20.9Q101.69-25.6 106.49-25.6L106.49-25.6Q107.19-25.6 108.04-25.45L108.04-25.45 108.04-20.65Q106.99-21.1 105.69-21.1L105.69-21.1Q103.14-21.1 101.49-18.85 99.84-16.6 99.84-13.5L99.84-13.5ZM125.19-5.05L125.19-0.65Q123.54 0.25 121.14 0.25L121.14 0.25Q113.29 0.25 113.29-7.7L113.29-7.7 113.29-21.55 109.34-21.55 109.34-25.35 113.29-25.35 113.29-31.55 118.24-31.55 118.24-25.35 124.89-25.35 124.89-21.55 118.24-21.55 118.24-7.6Q118.24-3.95 121.74-3.95L121.74-3.95Q123.79-3.95 125.19-5.05L125.19-5.05ZM135.74-25.35L135.74 0 130.79 0 130.79-25.35 135.74-25.35ZM136.34-33.1L136.34-33.1Q136.34-31.85 135.44-30.95 134.54-30.05 133.24-30.05 131.94-30.05 131.06-30.93 130.19-31.8 130.19-33.1 130.19-34.4 131.06-35.3 131.94-36.2 133.24-36.2 134.54-36.2 135.44-35.3 136.34-34.4 136.34-33.1ZM160.73-5.4L160.73-1Q158.28 0.5 154.48 0.5L154.48 0.5Q148.53 0.5 144.98-3.25 141.43-7 141.43-12.6L141.43-12.6Q141.43-18.05 145.01-21.93 148.58-25.8 154.68-25.8L154.68-25.8Q157.98-25.8 160.73-24.4L160.73-24.4 160.73-19.9Q158.28-21.45 155.18-21.45L155.18-21.45Q151.23-21.45 148.86-18.95 146.48-16.45 146.48-12.55L146.48-12.55Q146.58-8.7 148.83-6.23 151.08-3.75 155.13-3.75L155.13-3.75Q158.13-3.75 160.73-5.4L160.73-5.4ZM171.53-35.35L171.53 0 166.58 0 166.58-35.35 171.53-35.35ZM197.53-5.75L197.53-1.35Q194.73 0.25 190.13 0.25L190.13 0.25Q184.23 0.25 180.73-3.3 177.23-6.85 177.23-12.6L177.23-12.6Q177.23-18.7 180.43-22.18 183.63-25.65 188.58-25.65L188.58-25.65Q193.43-25.65 196.28-22.63 199.13-19.6 199.13-13.9L199.13-13.9Q199.13-12.35 198.83-10.65L198.83-10.65 182.18-10.65Q182.68-7.35 184.98-5.6 187.28-3.85 190.78-3.85L190.78-3.85Q194.83-3.85 197.53-5.75L197.53-5.75ZM188.68-21.6L188.68-21.6Q186.18-21.6 184.38-19.78 182.58-17.95 182.13-14.5L182.13-14.5 194.38-14.5 194.38-15.4Q194.28-18.25 192.83-19.93 191.38-21.6 188.68-21.6ZM237.32-9.2L237.32-9.2Q237.32-4.75 234.17-2.2 231.02 0.35 226.02 0.35L226.02 0.35Q220.47 0.35 216.82-1.8L216.82-1.8 216.82-7.15Q220.77-4.2 225.97-4.2L225.97-4.2Q228.72-4.2 230.32-5.48 231.92-6.75 231.92-9L231.92-9Q231.92-10.35 230.97-11.48 230.02-12.6 228.92-13.18 227.82-13.75 225.62-14.75L225.62-14.75Q224.32-15.35 223.8-15.6 223.27-15.85 222.07-16.5 220.87-17.15 220.3-17.6 219.72-18.05 218.87-18.85 218.02-19.65 217.65-20.45 217.27-21.25 216.95-22.33 216.62-23.4 216.62-24.65L216.62-24.65Q216.62-28.95 219.75-31.45 222.87-33.95 227.82-33.95L227.82-33.95Q232.37-33.95 235.57-32.35L235.57-32.35 235.57-27.25Q232.22-29.35 227.97-29.35L227.97-29.35Q225.22-29.35 223.65-28.13 222.07-26.9 222.07-24.9 222.07-22.9 223.62-21.7 225.17-20.5 228.37-19.1L228.37-19.1Q230.47-18.2 231.65-17.55 232.82-16.9 234.35-15.73 235.87-14.55 236.6-12.93 237.32-11.3 237.32-9.2ZM263.87-25.35L263.87 0 258.97 0 258.97-4.35Q256.97 0.3 251.07 0.3L251.07 0.3Q247.32 0.3 245.12-1.93 242.92-4.15 242.92-8.05L242.92-8.05 242.92-25.35 247.87-25.35 247.87-9.25Q247.87-6.65 249.15-5.28 250.42-3.9 252.67-3.9L252.67-3.9Q255.52-3.9 257.25-5.9 258.97-7.9 258.97-11.55L258.97-11.55 258.97-25.35 263.87-25.35ZM305.62-17.05L305.62 0 300.72 0 300.72-16Q300.72-21.45 296.32-21.45L296.32-21.45Q294.12-21.45 292.39-19.5 290.67-17.55 290.67-13.75L290.67-13.75 290.67 0 285.77 0 285.77-16Q285.77-21.45 281.32-21.45L281.32-21.45Q279.17-21.45 277.42-19.5 275.67-17.55 275.67-13.75L275.67-13.75 275.67 0 270.77 0 270.77-25.35 275.67-25.35 275.67-21.3Q277.82-25.7 282.82-25.7L282.82-25.7Q288.52-25.7 290.12-20.8L290.12-20.8Q291.17-23.15 293.17-24.43 295.17-25.7 297.67-25.7L297.67-25.7Q301.57-25.7 303.59-23.4 305.62-21.1 305.62-17.05L305.62-17.05ZM347.12-17.05L347.12 0 342.22 0 342.22-16Q342.22-21.45 337.82-21.45L337.82-21.45Q335.62-21.45 333.89-19.5 332.17-17.55 332.17-13.75L332.17-13.75 332.17 0 327.27 0 327.27-16Q327.27-21.45 322.82-21.45L322.82-21.45Q320.67-21.45 318.92-19.5 317.17-17.55 317.17-13.75L317.17-13.75 317.17 0 312.27 0 312.27-25.35 317.17-25.35 317.17-21.3Q319.32-25.7 324.32-25.7L324.32-25.7Q330.02-25.7 331.62-20.8L331.62-20.8Q332.67-23.15 334.67-24.43 336.67-25.7 339.17-25.7L339.17-25.7Q343.07-25.7 345.09-23.4 347.12-21.1 347.12-17.05L347.12-17.05ZM361.96-3.65L361.96-3.65Q364.36-3.65 365.74-4.98 367.11-6.3 367.11-8.45L367.11-8.45 367.11-11.3 363.31-11.3Q360.51-11.3 359.09-10.2 357.66-9.1 357.66-7.4L357.66-7.4Q357.66-5.65 358.76-4.65 359.86-3.65 361.96-3.65ZM367.26 0L367.26-3Q365.31 0.2 360.41 0.2L360.41 0.2Q356.81 0.2 354.64-1.88 352.46-3.95 352.46-7.15L352.46-7.15Q352.46-10.8 355.21-12.83 357.96-14.85 362.91-14.85L362.91-14.85 367.11-14.85 367.11-16.3Q367.11-18.9 365.86-20.23 364.61-21.55 361.71-21.55L361.71-21.55Q357.66-21.55 354.36-19.3L354.36-19.3 354.36-24.05Q357.31-25.75 362.16-25.75L362.16-25.75Q372.11-25.75 372.11-16.1L372.11-16.1 372.11 0 367.26 0ZM383.61-13.5L383.61 0 378.71 0 378.71-25.35 383.61-25.35 383.61-20.9Q385.46-25.6 390.26-25.6L390.26-25.6Q390.96-25.6 391.81-25.45L391.81-25.45 391.81-20.65Q390.76-21.1 389.46-21.1L389.46-21.1Q386.91-21.1 385.26-18.85 383.61-16.6 383.61-13.5L383.61-13.5ZM400.81-25.35L400.81 0 395.86 0 395.86-25.35 400.81-25.35ZM401.41-33.1L401.41-33.1Q401.41-31.85 400.51-30.95 399.61-30.05 398.31-30.05 397.01-30.05 396.13-30.93 395.26-31.8 395.26-33.1 395.26-34.4 396.13-35.3 397.01-36.2 398.31-36.2 399.61-36.2 400.51-35.3 401.41-34.4 401.41-33.1ZM425.36-4.15L425.36 0 406.61 0 406.61-3.75 418.91-21.25 407.06-21.25 407.06-25.35 424.71-25.35 424.71-21.85 412.26-4.15 425.36-4.15ZM449.85-5.75L449.85-1.35Q447.05 0.25 442.45 0.25L442.45 0.25Q436.55 0.25 433.05-3.3 429.55-6.85 429.55-12.6L429.55-12.6Q429.55-18.7 432.75-22.18 435.95-25.65 440.9-25.65L440.9-25.65Q445.75-25.65 448.6-22.63 451.45-19.6 451.45-13.9L451.45-13.9Q451.45-12.35 451.15-10.65L451.15-10.65 434.5-10.65Q435-7.35 437.3-5.6 439.6-3.85 443.1-3.85L443.1-3.85Q447.15-3.85 449.85-5.75L449.85-5.75ZM441-21.6L441-21.6Q438.5-21.6 436.7-19.78 434.9-17.95 434.45-14.5L434.45-14.5 446.7-14.5 446.7-15.4Q446.6-18.25 445.15-19.93 443.7-21.6 441-21.6ZM462.1-13.5L462.1 0 457.2 0 457.2-25.35 462.1-25.35 462.1-20.9Q463.95-25.6 468.75-25.6L468.75-25.6Q469.45-25.6 470.3-25.45L470.3-25.45 470.3-20.65Q469.25-21.1 467.95-21.1L467.95-21.1Q465.4-21.1 463.75-18.85 462.1-16.6 462.1-13.5L462.1-13.5Z" opacity="1" transform="matrix(1,0,0,1,0,0)" fill="#4b4b4b" class="slogan-text-1" data-fill-palette-color="secondary" id="text-1"></path></svg></g></svg></g></svg></g></svg></g><g><svg viewBox="0 0 244.43135999999998 244.43135999999998" height="244.43135999999998" width="244.43135999999998"><g><svg></svg></g><g id="icon-0"><svg viewBox="0 0 244.43135999999998 244.43135999999998" height="244.43135999999998" width="244.43135999999998"><g><path transform="scale(2.44431,2.44431)" d="M30 100c-16.569 0-30-13.431-30-30v-40c0-16.569 13.431-30 30-30h40c16.569 0 30 13.431 30 30v40c0 16.569-13.431 30-30 30z" fill="#f7f7f7" fill-rule="nonzero" stroke="none" stroke-width="1" stroke-linecap="butt" stroke-linejoin="miter" stroke-miterlimit="10" stroke-dasharray="" stroke-dashoffset="0" font-family="none" font-weight="none" font-size="none" text-anchor="none" style="mix-blend-mode: normal" data-fill-palette-color="accent"></path></g><g transform="matrix(1,0,0,1,58.052448,48.886272000000005)"><svg viewBox="0 0 128.326464 146.65881599999997" height="146.65881599999997" width="128.326464"><g><svg xmlns="http://www.w3.org/2000/svg" xmlns:xlink="http://www.w3.org/1999/xlink" version="1.1" x="0" y="0" viewBox="0 0 28 32" style="enable-background:new 0 0 28 32;" xml:space="preserve" height="146.65881599999997" width="128.326464" class="icon-z$-0" data-fill-palette-color="quaternary" id="z$-0"></svg></g></svg></g></svg></g></svg></g></svg></g><defs></defs><mask id="ac44ab43-fb37-4629-a7f2-37b4b2050708"><g id="SvgjsG1810"><svg viewBox="0 0 395.52 144.45637525033604" height="144.45637525033604" width="395.52"><g><svg viewBox="0 0 669.250431762963 244.43135999999998" height="144.45637525033604" width="395.52"><g transform="matrix(1,0,0,1,273.73043176296295,30.030184905608223)"><svg viewBox="0 0 395.52 184.37099018878354" height="184.37099018878354" width="395.52"><g id="SvgjsG1809"><svg viewBox="0 0 395.52 184.37099018878354" height="184.37099018878354" width="395.52" id="SvgjsSvg1808"><g><svg viewBox="0 0 395.52 124.10864197530864" height="124.10864197530864" width="395.52"><g transform="matrix(1,0,0,1,0,0)"><svg width="395.52" viewBox="1.05 -35.35 198.89 61" height="124.10864197530864" data-palette-color="url(#e4a0d35f-2182-44a9-b722-af3d75ab7a11)"><path d="M10.95 0.6Q8.6 0.6 6.43 0.1 4.25-0.4 2.83-1.15 1.4-1.9 1.05-2.6L1.05-2.6Q1.3-3.85 1.58-6.18 1.85-8.5 1.9-9.6L1.9-9.6Q2.45-10.05 3.3-10.15L3.3-10.15Q3.5-6.15 5.35-4.03 7.2-1.9 10.7-1.9L10.7-1.9Q14.35-1.9 16.53-4.05 18.7-6.2 18.7-9.55L18.7-9.55Q18.7-11.2 18.13-12.38 17.55-13.55 16.57-14.43 15.6-15.3 13.8-16.5L13.8-16.5Q11.3-18.25 9.78-19.58 8.25-20.9 7.35-22.58 6.45-24.25 6.45-26.4L6.45-26.4Q6.45-29.15 7.98-31.18 9.5-33.2 12.13-34.27 14.75-35.35 18-35.35L18-35.35Q21.15-35.35 23.75-34.43 26.35-33.5 27.05-32.45L27.05-32.45Q25.05-27.95 24.7-26.4L24.7-26.4Q23.95-26.1 22.9-26.1L22.9-26.1Q23.55-27.85 23.55-29.15L23.55-29.15Q23.55-31.15 22.03-32.2 20.5-33.25 18.05-33.25L18.05-33.25Q14.55-33.25 12.88-31.35 11.2-29.45 11.2-26.95L11.2-26.95Q11.2-24.55 12.7-22.9 14.2-21.25 16.6-19.8L16.6-19.8Q19.2-18.2 20.7-17.03 22.2-15.85 23.23-14.1 24.25-12.35 24.25-9.9L24.25-9.9Q24.25-6.65 22.45-4.28 20.65-1.9 17.63-0.65 14.6 0.6 10.95 0.6L10.95 0.6ZM57.4-11.7Q58.2-11.5 58.2-10.8L58.2-10.8Q58.2-9.6 56.35-6.85 54.5-4.1 51.82-1.93 49.15 0.25 46.5 0.25L46.5 0.25Q44.5 0.25 43.1-1.03 41.7-2.3 41.65-4.3L41.65-4.3Q40.3-2.45 38.55-1.1 36.8 0.25 35.25 0.25L35.25 0.25Q33.7 0.25 32-1 30.3-2.25 30.1-3.6L30.1-3.6 33.05-19.8Q33.25-20.75 33.7-20.75L33.7-20.75Q34.3-20.75 35.87-20.33 37.45-19.9 37.45-19.5L37.45-19.5Q37.45-19.35 37-17.55L37-17.55Q36.5-15.45 35.62-11.1 34.75-6.75 34.45-4.85L34.45-4.85Q34.55-4.15 35.17-3.58 35.8-3 36.65-3L36.65-3Q38.1-3 39.67-4.73 41.25-6.45 42.3-10.1L42.3-10.1Q43.2-13.15 44.6-20.2L44.6-20.2Q44.7-20.75 45.15-20.75L45.15-20.75Q45.8-20.75 47.22-20.33 48.65-19.9 48.65-19.4L48.65-19.4Q47.2-14.2 46.2-10 45.2-5.8 45.2-4.5L45.2-4.5Q45.2-3.55 45.77-2.9 46.35-2.25 47.45-2.25L47.45-2.25Q49.55-2.25 52.25-4.73 54.95-7.2 57.4-11.7L57.4-11.7ZM91.25-12.2Q91.84-12.2 92.19-11.88 92.55-11.55 92.55-10.9L92.55-10.9Q92.55-9.4 90.94-6.7 89.34-4 86.75-1.95 84.15 0.1 81.19 0.1L81.19 0.1Q78.55 0.1 76.62-1.53 74.69-3.15 74.69-5.5L74.69-5.5Q74.69-6.8 75.27-8.85 75.84-10.9 76.75-13.6L76.75-13.6Q77.55-16.2 77.64-16.6L77.64-16.6Q77.64-16.75 77.44-16.88 77.25-17 77.05-17L77.05-17Q76.09-17 73.75-13.73 71.39-10.45 70.19-8.15L70.19-8.15Q69.69-6.55 68.39-0.95L68.39-0.95Q68.19-0.1 68.07 0.2 67.94 0.5 67.69 0.5L67.69 0.5Q67.39 0.5 66.47 0.23 65.55-0.05 64.82-0.45 64.09-0.85 64.09-1.25L64.09-1.25Q64.09-1.9 64.55-3.55L64.55-3.55Q65.69-7.75 66.34-10.33 67-12.9 67.75-16.6L67.75-16.6Q67.44-17 67-17L67-17Q66.25-17 64.82-15.43 63.39-13.85 61.77-11.28 60.14-8.7 58.84-5.9L58.84-5.9Q57.95-2.65 57.34 0.45L57.34 0.45Q56.7 0.45 54.97 0.1 53.24-0.25 53.24-0.65L53.24-0.65Q53.24-1 53.74-2.85L53.74-2.85 53.99-4.15Q54.2-5.15 55.3-10.18 56.39-15.2 57.7-20.1L57.7-20.1Q57.8-20.55 57.95-20.75 58.09-20.95 58.39-20.95L58.39-20.95Q58.8-20.95 60.49-20.63 62.2-20.3 62.34-20.15L62.34-20.15Q61.39-16.05 60.24-11.7L60.24-11.7Q61.84-14.65 63.47-16.55 65.09-18.45 66.42-19.28 67.75-20.1 68.5-20.1L68.5-20.1Q69.14-20.1 70.77-19.48 72.39-18.85 72.39-18.5L72.39-18.5Q72-16.1 71.14-12.8L71.14-12.8Q76.39-20.65 78.75-20.65L78.75-20.65Q79.64-20.65 81.14-20.08 82.64-19.5 82.64-18.8L82.64-18.8Q82.09-17.05 82.14-17.15L82.14-17.15Q80.8-12.85 80.07-10.1 79.34-7.35 79.34-5.65L79.34-5.65Q79.34-2.55 82.25-2.55L82.25-2.55Q85.05-2.55 87.55-5.2 90.05-7.85 91.25-12.2L91.25-12.2ZM126.14-12.2Q126.74-12.2 127.09-11.88 127.44-11.55 127.44-10.9L127.44-10.9Q127.44-9.4 125.84-6.7 124.24-4 121.64-1.95 119.04 0.1 116.09 0.1L116.09 0.1Q113.44 0.1 111.52-1.53 109.59-3.15 109.59-5.5L109.59-5.5Q109.59-6.8 110.17-8.85 110.74-10.9 111.64-13.6L111.64-13.6Q112.44-16.2 112.54-16.6L112.54-16.6Q112.54-16.75 112.34-16.88 112.14-17 111.94-17L111.94-17Q110.99-17 108.64-13.73 106.29-10.45 105.09-8.15L105.09-8.15Q104.59-6.55 103.29-0.95L103.29-0.95Q103.09-0.1 102.97 0.2 102.84 0.5 102.59 0.5L102.59 0.5Q102.29 0.5 101.37 0.23 100.44-0.05 99.72-0.45 98.99-0.85 98.99-1.25L98.99-1.25Q98.99-1.9 99.44-3.55L99.44-3.55Q100.59-7.75 101.24-10.33 101.89-12.9 102.64-16.6L102.64-16.6Q102.34-17 101.89-17L101.89-17Q101.14-17 99.72-15.43 98.29-13.85 96.67-11.28 95.04-8.7 93.74-5.9L93.74-5.9Q92.84-2.65 92.24 0.45L92.24 0.45Q91.59 0.45 89.87 0.1 88.14-0.25 88.14-0.65L88.14-0.65Q88.14-1 88.64-2.85L88.64-2.85 88.89-4.15Q89.09-5.15 90.19-10.18 91.29-15.2 92.59-20.1L92.59-20.1Q92.69-20.55 92.84-20.75 92.99-20.95 93.29-20.95L93.29-20.95Q93.69-20.95 95.39-20.63 97.09-20.3 97.24-20.15L97.24-20.15Q96.29-16.05 95.14-11.7L95.14-11.7Q96.74-14.65 98.37-16.55 99.99-18.45 101.32-19.28 102.64-20.1 103.39-20.1L103.39-20.1Q104.04-20.1 105.67-19.48 107.29-18.85 107.29-18.5L107.29-18.5Q106.89-16.1 106.04-12.8L106.04-12.8Q111.29-20.65 113.64-20.65L113.64-20.65Q114.54-20.65 116.04-20.08 117.54-19.5 117.54-18.8L117.54-18.8Q116.99-17.05 117.04-17.15L117.04-17.15Q115.69-12.85 114.97-10.1 114.24-7.35 114.24-5.65L114.24-5.65Q114.24-2.55 117.14-2.55L117.14-2.55Q119.94-2.55 122.44-5.2 124.94-7.85 126.14-12.2L126.14-12.2ZM138.64-20.9Q139.84-20.9 141.47-20.63 143.09-20.35 143.24-19.75L143.24-19.75Q142.44-15.85 141.29-10.7 140.14-5.55 139.24-2.25L139.24-2.25Q136.19 9.25 130.27 17.45 124.34 25.65 113.84 25.65L113.84 25.65Q109.14 25.65 106.84 23.93 104.54 22.2 104.54 19.65L104.54 19.65Q104.54 17.95 105.59 16.6L105.59 16.6Q107.09 18.5 109.84 19.75 112.59 21 116.24 21L116.24 21Q120.54 21 123.89 18.85 127.24 16.7 130.04 11.55 132.84 6.4 135.24-2.5L135.24-2.5Q133.74-1.45 132.19-0.73 130.64 0 129.64 0L129.64 0Q128.64 0 127.34-0.63 126.04-1.25 125.12-2.25 124.19-3.25 124.19-4.35L124.19-4.35Q124.39-5.35 124.99-8.9L124.99-8.9Q125.89-14.95 126.89-19.4L126.89-19.4Q127.19-20.8 128.99-20.8L128.99-20.8Q129.59-20.8 130.54-20.73 131.49-20.65 131.79-20.55L131.79-20.55Q130.99-16.9 129.64-9.45L129.64-9.45Q129.19-6.65 128.89-5.3L128.89-5.3Q128.84-4.2 129.49-3.48 130.14-2.75 130.99-2.75L130.99-2.75Q132.04-2.75 133.62-3.78 135.19-4.8 135.99-5.85L135.99-5.85 136.94-11.25Q138.29-18.6 138.64-20.9L138.64-20.9ZM197.69 3.55Q198.74 3.55 199.34 4.35 199.94 5.15 199.94 6.5L199.94 6.5Q199.94 8.85 198.16 10.63 196.39 12.4 193.46 13.35 190.54 14.3 187.24 14.3L187.24 14.3Q183.04 14.3 178.66 12.8 174.29 11.3 170.46 9.18 166.64 7.05 160.84 3.45L160.84 3.45Q157.19 1.15 154.84-0.25L154.84-0.25Q153.24-1.2 152.34-1.2L152.34-1.2Q151.69-1.2 151.11-0.85 150.54-0.5 149.49 0.45L149.49 0.45Q148.79 0.45 147.66-0.18 146.54-0.8 146.54-1.1L146.54-1.1Q151.59-5.1 155.01-8.38 158.44-11.65 161.54-15.45L161.54-15.45Q158.64-13.55 155.44-13.55L155.44-13.55Q152.84-13.55 151.54-14.78 150.24-16 150.24-17.8L150.24-17.8Q150.24-19.35 151.21-20.2 152.19-21.05 153.64-21.05L153.64-21.05Q154.89-21.05 155.69-20.45L155.69-20.45Q155.39-20 155.19-19.35 154.99-18.7 154.99-18.1L154.99-18.1Q154.99-16.1 157.54-16.1L157.54-16.1Q161.29-16.1 165.24-20.7L165.24-20.7Q166.04-20.7 166.91-20.08 167.79-19.45 167.79-18.7L167.79-18.7Q167.79-18.1 167.09-17.25L167.09-17.25Q160.89-9.35 155.24-4.15L155.24-4.15Q162.29 0.5 167.69 3.6 173.09 6.7 178.21 8.65 183.34 10.6 187.59 10.6L187.59 10.6Q191.69 10.6 194.09 8.78 196.49 6.95 197.69 3.55L197.69 3.55ZM194.59-11.45Q195.44-11.05 195.44-10.3L195.44-10.3Q195.44-8.05 192.81-5.58 190.19-3.1 186.31-1.43 182.44 0.25 179.14 0.25L179.14 0.25Q176.44 0.25 174.54-0.85 172.64-1.95 171.66-3.33 170.69-4.7 170.69-5.35L170.69-5.35Q171.04-6.65 171.36-8.45 171.69-10.25 171.84-10.95L171.84-10.95Q171.99-11.85 172.21-13.08 172.44-14.3 172.79-15.9L172.79-15.9Q172.99-16.9 174.54-18.13 176.09-19.35 178.06-20.18 180.04-21 181.34-21L181.34-21Q182.44-21 183.96-20.4 185.49-19.8 186.59-18.73 187.69-17.65 187.69-16.2L187.69-16.2Q187.69-14.35 185.86-12.6 184.04-10.85 181.24-9.73 178.44-8.6 175.74-8.5L175.74-8.5 175.34-6.4Q175.49-4.85 176.79-3.73 178.09-2.6 180.69-2.6L180.69-2.6Q183.19-2.6 185.91-3.75 188.64-4.9 190.96-6.93 193.29-8.95 194.59-11.45L194.59-11.45ZM180.89-18.9Q179.64-18.9 178.46-17.7 177.29-16.5 176.99-15.3L176.99-15.3 176.14-10.75Q179.14-10.95 181.24-12.5 183.34-14.05 183.34-16.15L183.34-16.15Q183.34-17.4 182.61-18.15 181.89-18.9 180.89-18.9L180.89-18.9Z" opacity="1" transform="matrix(1,0,0,1,0,0)" fill="white" class="wordmark-text-0" id="SvgjsPath1807"></path></svg></g></svg></g><g transform="matrix(1,0,0,1,0,153.4077137382716)"><svg viewBox="0 0 395.52 30.963276450511945" height="30.963276450511945" width="395.52"><g transform="matrix(1,0,0,1,0,0)"><svg width="395.52" viewBox="1.55 -36.2 468.75 36.7" height="30.963276450511945" data-palette-color="#4b4b4b"></svg></g></svg></g></svg></g></svg></g><g><svg viewBox="0 0 244.43135999999998 244.43135999999998" height="244.43135999999998" width="244.43135999999998"><g><svg></svg></g><g id="SvgjsG1805"><svg viewBox="0 0 244.43135999999998 244.43135999999998" height="244.43135999999998" width="244.43135999999998"><g></g><g transform="matrix(1,0,0,1,58.052448,48.886272000000005)"><svg viewBox="0 0 128.326464 146.65881599999997" height="146.65881599999997" width="128.326464"><g><svg xmlns="http://www.w3.org/2000/svg" xmlns:xlink="http://www.w3.org/1999/xlink" version="1.1" x="0" y="0" viewBox="0 0 28 32" style="enable-background:new 0 0 28 32;" xml:space="preserve" height="146.65881599999997" width="128.326464" class="icon-z$-0" data-fill-palette-color="quaternary" id="SvgjsSvg1804"></svg></g></svg></g></svg></g></svg></g></svg></g><defs><mask></mask></defs></svg></g></mask><linearGradient x1="0" x2="1" y1="0.5" y2="0.5" id="e4a0d35f-2182-44a9-b722-af3d75ab7a11"><stop stop-color="#ffa62e" offset="0"></stop><stop stop-color="#f71b3d" offset="1"></stop></linearGradient><rect width="395.52" height="144.45637525033604" fill="url(#e4a0d35f-2182-44a9-b722-af3d75ab7a11)" mask="url(#ac44ab43-fb37-4629-a7f2-37b4b2050708)" data-fill-palette-color="primary"></rect><mask id="1294676c-f514-424d-9a4a-895bb2c14d56"><g id="SvgjsG1835"><svg viewBox="0 0 395.52 144.45637525033604" height="144.45637525033604" width="395.52"><g><svg viewBox="0 0 669.250431762963 244.43135999999998" height="144.45637525033604" width="395.52"><g transform="matrix(1,0,0,1,273.73043176296295,30.030184905608223)"><svg viewBox="0 0 395.52 184.37099018878354" height="184.37099018878354" width="395.52"><g id="SvgjsG1834"><svg viewBox="0 0 395.52 184.37099018878354" height="184.37099018878354" width="395.52" id="SvgjsSvg1833"><g><svg viewBox="0 0 395.52 124.10864197530864" height="124.10864197530864" width="395.52"><g transform="matrix(1,0,0,1,0,0)"><svg width="395.52" viewBox="1.05 -35.35 198.89 61" height="124.10864197530864" data-palette-color="url(#e4a0d35f-2182-44a9-b722-af3d75ab7a11)"></svg></g></svg></g><g transform="matrix(1,0,0,1,0,153.4077137382716)"><svg viewBox="0 0 395.52 30.963276450511945" height="30.963276450511945" width="395.52"><g transform="matrix(1,0,0,1,0,0)"><svg width="395.52" viewBox="1.55 -36.2 468.75 36.7" height="30.963276450511945" data-palette-color="#4b4b4b"></svg></g></svg></g></svg></g></svg></g><g><svg viewBox="0 0 244.43135999999998 244.43135999999998" height="244.43135999999998" width="244.43135999999998"><g><svg></svg></g><g id="SvgjsG1831"><svg viewBox="0 0 244.43135999999998 244.43135999999998" height="244.43135999999998" width="244.43135999999998"><g></g><g transform="matrix(1,0,0,1,58.052448,48.886272000000005)"><svg viewBox="0 0 128.326464 146.65881599999997" height="146.65881599999997" width="128.326464"><g><svg xmlns="http://www.w3.org/2000/svg" xmlns:xlink="http://www.w3.org/1999/xlink" version="1.1" x="0" y="0" viewBox="0 0 28 32" style="enable-background:new 0 0 28 32;" xml:space="preserve" height="146.65881599999997" width="128.326464" class="icon-z$-0" data-fill-palette-color="quaternary" id="SvgjsSvg1830"><g fill="white"><g fill="white"><g fill="white"><polygon points="9.815,21.969 11.702,21.969 10.798,19.994    " fill="white"></polygon><path d="M23 15H1c-0.55 0-1 0.45-1 1v10c0 0.55 0.45 1 1 1h22c0.551 0 1-0.45 1-1V16C24 15.45 23.551 15 23 15zM12.622 23.729l-0.353-0.704h-2.95l-0.344 0.704C8.847 24 8.551 24.057 8.264 24c-0.256-0.145-0.416-0.432-0.256-0.768l2.294-4.485c0.216-0.424 0.792-0.44 0.992 0l2.254 4.485C13.876 23.855 12.909 24.352 12.622 23.729zM15.559 23.512c0 0.664-1.055 0.68-1.055 0v-4.564c0-0.656 1.055-0.68 1.055 0V23.512z" fill="white"></path></g><path d="M27 7.586L20.414 1C19.836 0.42 18.82 0 18 0H7C5.346 0 4 1.346 4 3v10c0 0.553 0.447 1 1 1s1-0.447 1-1V3c0-0.551 0.448-1 1-1h9c1.105 0 2 0.896 2 2v3.75C18 8.988 19.014 10 20.25 10H24c1.105 0 2 0.896 2 2v17c0 0.551-0.447 1-1 1H7c-0.552 0-1-0.449-1-1 0-0.553-0.447-1-1-1s-1 0.447-1 1c0 1.654 1.346 3 3 3h18c1.654 0 3-1.346 3-3V10C28 9.181 27.58 8.165 27 7.586z" fill="white"></path></g></g></svg></g></svg></g></svg></g></svg></g></svg></g><defs><mask></mask></defs><mask><g id="SvgjsG1829"><svg viewBox="0 0 395.52 144.45637525033604" height="144.45637525033604" width="395.52"><g><svg viewBox="0 0 669.250431762963 244.43135999999998" height="144.45637525033604" width="395.52"><g transform="matrix(1,0,0,1,273.73043176296295,30.030184905608223)"><svg viewBox="0 0 395.52 184.37099018878354" height="184.37099018878354" width="395.52"><g id="SvgjsG1828"><svg viewBox="0 0 395.52 184.37099018878354" height="184.37099018878354" width="395.52" id="SvgjsSvg1827"><g><svg viewBox="0 0 395.52 124.10864197530864" height="124.10864197530864" width="395.52"><g transform="matrix(1,0,0,1,0,0)"><svg width="395.52" viewBox="1.05 -35.35 198.89 61" height="124.10864197530864" data-palette-color="url(#e4a0d35f-2182-44a9-b722-af3d75ab7a11)"></svg></g></svg></g><g transform="matrix(1,0,0,1,0,153.4077137382716)"><svg viewBox="0 0 395.52 30.963276450511945" height="30.963276450511945" width="395.52"><g transform="matrix(1,0,0,1,0,0)"><svg width="395.52" viewBox="1.55 -36.2 468.75 36.7" height="30.963276450511945" data-palette-color="#4b4b4b"></svg></g></svg></g></svg></g></svg></g><g><svg viewBox="0 0 244.43135999999998 244.43135999999998" height="244.43135999999998" width="244.43135999999998"><g><svg></svg></g><g id="SvgjsG1825"><svg viewBox="0 0 244.43135999999998 244.43135999999998" height="244.43135999999998" width="244.43135999999998"><g></g><g transform="matrix(1,0,0,1,58.052448,48.886272000000005)"><svg viewBox="0 0 128.326464 146.65881599999997" height="146.65881599999997" width="128.326464"><g><svg xmlns="http://www.w3.org/2000/svg" xmlns:xlink="http://www.w3.org/1999/xlink" version="1.1" x="0" y="0" viewBox="0 0 28 32" style="enable-background:new 0 0 28 32;" xml:space="preserve" height="146.65881599999997" width="128.326464" class="icon-z$-0" data-fill-palette-color="quaternary" id="SvgjsSvg1824"></svg></g></svg></g></svg></g></svg></g></svg></g><defs><mask></mask></defs></svg></g></mask></svg></g></mask><linearGradient x1="0" x2="1" y1="0.5" y2="0.5" id="05bd4599-6cfb-4250-89ca-d4423b92b3a9"><stop stop-color="#ffa62e" offset="0"></stop><stop stop-color="#f71b3d" offset="1"></stop></linearGradient><rect width="395.52" height="144.45637525033604" fill="url(#05bd4599-6cfb-4250-89ca-d4423b92b3a9)" mask="url(#1294676c-f514-424d-9a4a-895bb2c14d56)" data-fill-palette-color="quaternary"></rect></svg><rect width="395.52" height="144.45637525033604" fill="none" stroke="none" visibility="hidden"></rect></g></svg></g></svg>